<?xml version="1.0" standalone="no"?>
<!DOCTYPE svg PUBLIC "-//W3C//DTD SVG 20010904//EN"
 "http://www.w3.org/TR/2001/REC-SVG-20010904/DTD/svg10.dtd">
<svg version="1.0" xmlns="http://www.w3.org/2000/svg"
 width="211.000000pt" height="239.000000pt" viewBox="0 0 211.000000 239.000000"
 preserveAspectRatio="xMidYMid meet">

<g transform="translate(0.000000,239.000000) scale(0.100000,-0.100000)"
fill="#000000" stroke="none">
<path d="M990 2368 c-30 -15 -58 -41 -82 -77 l-38 -54 42 -19 c33 -15 44 -16
47 -6 7 23 78 88 96 88 31 0 91 -75 123 -152 58 -140 118 -416 95 -439 -8 -8
-26 -6 -65 7 -72 25 -233 26 -304 1 -71 -24 -83 -18 -73 41 11 69 11 69 -18
76 -16 4 -35 9 -45 12 -13 4 -17 -5 -23 -46 -6 -42 -10 -50 -24 -45 -88 35
-263 87 -335 100 -114 21 -245 17 -300 -9 -101 -50 -102 -164 -1 -315 42 -64
253 -280 309 -316 l27 -18 -38 -30 c-85 -69 -257 -246 -299 -308 -75 -113 -93
-202 -54 -266 26 -44 72 -65 154 -71 63 -4 69 -3 63 12 -4 10 -7 28 -7 41 0
20 -7 24 -47 30 -27 3 -58 13 -71 21 -32 21 -29 76 7 139 48 84 198 240 327
342 50 39 53 36 78 -59 22 -83 71 -167 137 -233 53 -55 61 -80 27 -91 -12 -3
-36 -13 -54 -20 l-33 -14 16 -40 c18 -45 18 -45 66 -25 20 8 38 15 40 15 2 0
10 -33 16 -74 21 -129 70 -297 112 -384 116 -239 273 -238 389 2 39 80 101
299 115 404 6 44 10 52 24 47 88 -35 263 -87 335 -100 114 -21 245 -17 300 9
72 36 95 116 59 208 -29 75 -27 75 -101 22 -2 -1 4 -16 12 -33 9 -16 16 -46
16 -65 0 -54 -32 -70 -134 -69 -134 2 -486 104 -486 141 0 9 22 39 49 67 66
66 115 150 136 233 26 96 31 100 89 52 26 -22 50 -40 52 -40 2 0 17 14 33 32
l29 32 -44 35 -43 35 37 30 c68 55 223 210 268 268 126 163 137 300 28 354
-55 26 -197 31 -305 9 -68 -14 -250 -69 -330 -100 -13 -5 -18 7 -28 67 -49
285 -144 499 -244 547 -55 27 -72 26 -127 -1z m-585 -610 c137 -31 315 -97
315 -116 0 -9 -22 -39 -49 -67 -66 -66 -115 -150 -137 -233 -23 -89 -29 -97
-63 -73 -110 80 -292 270 -342 356 -32 56 -38 115 -13 135 38 33 138 32 289
-2z m1583 6 c32 -21 29 -76 -7 -139 -48 -84 -198 -240 -327 -342 -50 -39 -53
-36 -78 59 -22 83 -71 167 -137 233 -27 28 -49 58 -49 67 0 18 117 64 268 104
163 44 278 50 330 18z m-734 -147 c165 -82 266 -242 266 -422 0 -181 -101
-340 -269 -423 -74 -36 -77 -37 -196 -37 -120 0 -122 0 -199 38 -356 176 -355
667 1 846 66 33 110 40 220 37 95 -2 108 -5 177 -39z m-353 -942 c70 -25 183
-29 269 -10 106 23 105 24 108 -7 4 -36 -33 -221 -65 -323 -46 -145 -111 -245
-160 -245 -30 0 -89 74 -121 151 -53 127 -114 394 -99 432 8 21 13 21 68 2z"/>
<path d="M944 1496 c-151 -37 -179 -127 -56 -184 51 -24 68 -27 167 -27 99 0
116 3 167 27 94 44 104 106 25 152 -77 44 -199 57 -303 32z"/>
<path d="M810 1271 c0 -78 98 -125 253 -123 94 1 174 23 210 56 21 20 27 34
27 67 l0 42 -22 -20 c-45 -41 -91 -56 -183 -61 -112 -6 -191 10 -244 49 l-41
29 0 -39z"/>
<path d="M810 1146 c0 -33 6 -48 28 -69 76 -73 285 -87 403 -26 46 23 59 45
59 95 l0 38 -27 -26 c-42 -39 -111 -58 -212 -58 -105 0 -178 20 -220 59 l-31
29 0 -42z"/>
<path d="M1275 1032 c-32 -38 -117 -61 -221 -62 -106 0 -175 18 -215 56 l-29
28 0 -43 c0 -35 6 -48 30 -71 45 -42 93 -55 205 -55 168 1 260 48 253 132 l-3
39 -20 -24z"/>
<path d="M782 2143 c-68 -33 -86 -133 -36 -192 98 -117 284 15 204 146 -36 59
-104 78 -168 46z"/>
<path d="M1821 1073 c-48 -24 -76 -88 -62 -141 27 -99 143 -128 214 -54 54 56
41 151 -25 192 -40 24 -82 25 -127 3z"/>
<path d="M369 697 c-91 -61 -68 -196 40 -228 33 -10 44 -9 77 7 53 27 79 66
78 118 -2 102 -111 160 -195 103z"/>
</g>
</svg>
