<?xml version="1.0" standalone="no"?>
<!DOCTYPE svg PUBLIC "-//W3C//DTD SVG 20010904//EN"
 "http://www.w3.org/TR/2001/REC-SVG-20010904/DTD/svg10.dtd">
<svg version="1.0" xmlns="http://www.w3.org/2000/svg"
 width="200.000000pt" height="200.000000pt" viewBox="0 0 200.000000 200.000000"
 preserveAspectRatio="xMidYMid meet">

<g transform="translate(0.000000,200.000000) scale(0.100000,-0.100000)"
fill="#000000" stroke="none">
<path d="M162 1858 c-8 -8 -12 -46 -12 -105 l0 -93 235 0 235 0 0 93 c0 59 -4
97 -12 105 -17 17 -429 17 -446 0z"/>
<path d="M773 1863 c-9 -3 -13 -34 -13 -104 l0 -99 235 0 235 0 0 93 c0 59 -4
97 -12 105 -9 9 -71 12 -222 11 -116 0 -217 -3 -223 -6z"/>
<path d="M1393 1863 c-9 -3 -13 -34 -13 -104 l0 -99 235 0 235 0 0 93 c0 59
-4 97 -12 105 -9 9 -71 12 -222 11 -116 0 -217 -3 -223 -6z"/>
<path d="M125 1579 c-18 -60 -18 -62 0 -75 13 -10 52 -14 132 -14 l113 0 0
-58 0 -58 166 -54 c155 -49 165 -54 160 -75 -8 -30 2 -37 33 -21 14 7 36 17
48 20 l23 7 2 -273 3 -273 195 0 195 0 3 163 3 163 41 -35 c43 -37 58 -38 58
-5 0 16 7 19 40 19 29 0 40 -4 40 -15 0 -13 33 -15 235 -15 l235 0 0 93 c0 59
-4 97 -12 105 -18 18 -431 17 -446 -1 -6 -7 -12 -37 -14 -67 l-3 -55 -37 -3
c-34 -3 -38 -1 -38 21 0 39 -11 39 -57 1 l-43 -35 0 106 c0 118 -2 116 73 78
28 -14 30 -12 28 23 -2 19 16 27 163 74 l166 54 0 58 0 58 113 0 c80 0 119 4
132 14 18 13 18 15 0 75 l-18 61 -242 0 -243 0 -16 -40 c-19 -48 -20 -82 -4
-98 8 -8 50 -12 125 -12 l113 0 0 -43 0 -43 -143 -47 c-78 -26 -148 -47 -154
-47 -6 0 -15 9 -18 20 -9 29 -17 25 -49 -26 -20 -32 -32 -42 -39 -35 -6 6 -49
11 -95 11 l-84 0 31 39 c37 47 38 51 6 51 -24 0 -25 3 -25 60 l0 60 108 0 c76
0 114 4 127 14 18 13 18 15 0 75 l-18 61 -242 0 -242 0 -17 -43 c-37 -97 -24
-107 126 -107 l118 0 0 -60 c0 -57 -1 -60 -25 -60 -32 0 -32 -8 6 -53 l30 -37
-78 0 c-43 0 -87 -3 -98 -6 -15 -4 -26 5 -45 36 -28 45 -39 50 -47 20 -3 -11
-10 -20 -16 -20 -6 0 -76 21 -154 47 l-143 47 0 43 0 43 113 0 c145 0 157 11
121 107 l-17 43 -242 0 -242 0 -18 -61z m1025 -594 l0 -235 -150 0 -150 0 0
235 0 235 150 0 150 0 0 -235z"/>
<path d="M870 985 l0 -225 130 0 130 0 0 225 0 225 -130 0 -130 0 0 -225z
m235 175 c-3 -6 -52 -10 -111 -10 -63 0 -104 4 -104 10 0 6 44 10 111 10 71 0
108 -4 104 -10z m0 -60 c4 -6 -33 -10 -105 -10 -72 0 -109 4 -105 10 3 6 50
10 105 10 55 0 102 -4 105 -10z m0 -70 c-3 -6 -50 -10 -105 -10 -55 0 -102 4
-105 10 -4 6 33 10 105 10 72 0 109 -4 105 -10z m-75 -85 c26 -32 -13 -81 -47
-59 -35 22 -23 74 17 74 10 0 23 -7 30 -15z m-15 -130 c0 -28 -29 -25 -33 3
-3 19 0 23 15 20 10 -2 18 -12 18 -23z"/>
<path d="M162 1178 c-8 -8 -12 -46 -12 -105 l0 -93 235 0 c202 0 235 2 235 15
0 11 11 15 40 15 33 0 40 -3 40 -19 0 -11 4 -22 8 -25 11 -7 82 52 82 67 0 14
-63 67 -79 67 -6 0 -11 -12 -11 -26 0 -23 -3 -25 -37 -22 l-38 3 -3 55 c-2 30
-8 60 -14 67 -15 18 -428 19 -446 1z"/>
<path d="M124 896 c-28 -89 -35 -87 264 -84 293 3 287 1 261 85 l-15 48 -246
3 -247 2 -17 -54z"/>
<path d="M1355 914 c-18 -44 -19 -76 -3 -92 9 -9 81 -12 264 -12 295 0 288 -2
260 86 l-17 54 -244 0 -245 0 -15 -36z"/>
<path d="M696 723 l5 -28 -166 -53 -165 -53 0 -40 0 -39 -94 0 c-123 0 -126
-3 -126 -121 l0 -89 235 0 235 0 0 93 c0 59 -4 97 -12 105 -8 8 -46 12 -106
12 l-93 0 3 26 c3 23 15 29 153 74 82 27 149 48 150 47 1 -1 6 -13 11 -26 10
-25 11 -24 42 21 18 26 32 49 32 52 0 6 -88 46 -101 46 -5 0 -6 -12 -3 -27z"/>
<path d="M1248 731 c-21 -10 -41 -20 -44 -24 -3 -3 9 -27 27 -54 l33 -48 10
28 c6 15 15 26 21 24 5 -2 74 -25 153 -51 130 -44 142 -50 142 -72 0 -24 -1
-24 -93 -24 -59 0 -97 -4 -105 -12 -8 -8 -12 -46 -12 -105 l0 -93 235 0 235 0
0 89 c0 118 -3 121 -126 121 l-94 0 0 39 0 40 -165 53 -166 53 5 28 c6 32 -3
33 -56 8z"/>
<path d="M961 655 c-38 -43 -39 -55 -6 -55 23 0 25 -4 25 -45 l0 -45 -98 0
c-63 0 -102 -4 -110 -12 -8 -8 -12 -46 -12 -105 l0 -93 235 0 235 0 0 89 c0
117 -4 121 -121 121 l-89 0 0 45 c0 41 2 45 25 45 14 0 25 4 25 10 0 12 -59
80 -70 80 -4 0 -22 -16 -39 -35z"/>
<path d="M135 247 c-24 -57 -28 -86 -15 -102 10 -13 53 -15 260 -15 137 0 255
3 264 6 20 8 20 38 0 97 l-16 47 -239 0 -240 0 -14 -33z"/>
<path d="M736 233 c-20 -59 -20 -89 0 -97 9 -3 127 -6 264 -6 292 0 286 -2
254 88 l-19 57 -242 3 -241 2 -16 -47z"/>
<path d="M1356 233 c-20 -59 -20 -89 0 -97 9 -3 127 -6 264 -6 292 0 286 -2
254 88 l-19 57 -242 3 -241 2 -16 -47z"/>
</g>
</svg>
